<svg width="643" height="467" viewBox="0 0 643 467" fill="none" xmlns="http://www.w3.org/2000/svg">
<rect width="643" height="467" fill="#20155D"/>
<path d="M234.332 215L227.324 202.28H225.356V215H217.148V181.304H230.924C233.58 181.304 235.836 181.768 237.692 182.696C239.58 183.624 240.988 184.904 241.916 186.536C242.844 188.136 243.308 189.928 243.308 191.912C243.308 194.152 242.668 196.152 241.388 197.912C240.14 199.672 238.284 200.92 235.82 201.656L243.596 215H234.332ZM225.356 196.472H230.444C231.948 196.472 233.068 196.104 233.804 195.368C234.572 194.632 234.956 193.592 234.956 192.248C234.956 190.968 234.572 189.96 233.804 189.224C233.068 188.488 231.948 188.12 230.444 188.12H225.356V196.472ZM274.14 192.152C274.14 194.104 273.692 195.896 272.796 197.528C271.9 199.128 270.524 200.424 268.668 201.416C266.812 202.408 264.508 202.904 261.756 202.904H256.668V215H248.46V181.304H261.756C264.444 181.304 266.716 181.768 268.572 182.696C270.428 183.624 271.82 184.904 272.748 186.536C273.676 188.168 274.14 190.04 274.14 192.152ZM261.132 196.376C262.7 196.376 263.868 196.008 264.636 195.272C265.404 194.536 265.788 193.496 265.788 192.152C265.788 190.808 265.404 189.768 264.636 189.032C263.868 188.296 262.7 187.928 261.132 187.928H256.668V196.376H261.132ZM286.622 208.664H297.374V215H278.414V181.304H286.622V208.664ZM337.14 192.152C337.14 194.104 336.692 195.896 335.796 197.528C334.9 199.128 333.524 200.424 331.668 201.416C329.812 202.408 327.508 202.904 324.756 202.904H319.668V215H311.46V181.304H324.756C327.444 181.304 329.716 181.768 331.572 182.696C333.428 183.624 334.82 184.904 335.748 186.536C336.676 188.168 337.14 190.04 337.14 192.152ZM324.132 196.376C325.7 196.376 326.868 196.008 327.636 195.272C328.404 194.536 328.788 193.496 328.788 192.152C328.788 190.808 328.404 189.768 327.636 189.032C326.868 188.296 325.7 187.928 324.132 187.928H319.668V196.376H324.132ZM367.094 192.152C367.094 194.104 366.646 195.896 365.75 197.528C364.854 199.128 363.478 200.424 361.622 201.416C359.766 202.408 357.462 202.904 354.71 202.904H349.622V215H341.414V181.304H354.71C357.398 181.304 359.67 181.768 361.526 182.696C363.382 183.624 364.774 184.904 365.702 186.536C366.63 188.168 367.094 190.04 367.094 192.152ZM354.086 196.376C355.654 196.376 356.822 196.008 357.59 195.272C358.358 194.536 358.742 193.496 358.742 192.152C358.742 190.808 358.358 189.768 357.59 189.032C356.822 188.296 355.654 187.928 354.086 187.928H349.622V196.376H354.086ZM379.575 208.664H390.327V215H371.367V181.304H379.575V208.664ZM416.61 191.96C416.002 190.84 415.122 189.992 413.97 189.416C412.85 188.808 411.522 188.504 409.986 188.504C407.33 188.504 405.202 189.384 403.602 191.144C402.002 192.872 401.202 195.192 401.202 198.104C401.202 201.208 402.034 203.64 403.698 205.4C405.394 207.128 407.714 207.992 410.658 207.992C412.674 207.992 414.37 207.48 415.746 206.456C417.154 205.432 418.178 203.96 418.818 202.04H408.402V195.992H426.258V203.624C425.65 205.672 424.61 207.576 423.138 209.336C421.698 211.096 419.858 212.52 417.618 213.608C415.378 214.696 412.85 215.24 410.034 215.24C406.706 215.24 403.73 214.52 401.106 213.08C398.514 211.608 396.482 209.576 395.01 206.984C393.57 204.392 392.85 201.432 392.85 198.104C392.85 194.776 393.57 191.816 395.01 189.224C396.482 186.6 398.514 184.568 401.106 183.128C403.698 181.656 406.658 180.92 409.986 180.92C414.018 180.92 417.41 181.896 420.162 183.848C422.946 185.8 424.786 188.504 425.682 191.96H416.61Z" fill="#FFD941"/>
<path d="M102.543 287.336C100.079 287.336 97.871 286.936 95.919 286.136C93.967 285.336 92.399 284.152 91.215 282.584C90.063 281.016 89.455 279.128 89.391 276.92H98.127C98.255 278.168 98.687 279.128 99.423 279.8C100.159 280.44 101.119 280.76 102.303 280.76C103.519 280.76 104.479 280.488 105.183 279.944C105.887 279.368 106.239 278.584 106.239 277.592C106.239 276.76 105.951 276.072 105.375 275.528C104.831 274.984 104.143 274.536 103.311 274.184C102.511 273.832 101.359 273.432 99.855 272.984C97.679 272.312 95.903 271.64 94.527 270.968C93.151 270.296 91.967 269.304 90.975 267.992C89.983 266.68 89.487 264.968 89.487 262.856C89.487 259.72 90.623 257.272 92.895 255.512C95.167 253.72 98.127 252.824 101.775 252.824C105.487 252.824 108.479 253.72 110.751 255.512C113.023 257.272 114.239 259.736 114.399 262.904H105.519C105.455 261.816 105.055 260.968 104.319 260.36C103.583 259.72 102.639 259.4 101.487 259.4C100.495 259.4 99.695 259.672 99.087 260.216C98.479 260.728 98.175 261.48 98.175 262.472C98.175 263.56 98.687 264.408 99.711 265.016C100.735 265.624 102.335 266.28 104.511 266.984C106.687 267.72 108.447 268.424 109.791 269.096C111.167 269.768 112.351 270.744 113.343 272.024C114.335 273.304 114.831 274.952 114.831 276.968C114.831 278.888 114.335 280.632 113.343 282.2C112.383 283.768 110.975 285.016 109.119 285.944C107.263 286.872 105.071 287.336 102.543 287.336ZM158.042 253.304V287H149.834V266.792L142.298 287H135.674L128.09 266.744V287H119.882V253.304H129.578L139.034 276.632L148.394 253.304H158.042ZM183.481 287L172.153 272.12V287H163.945V253.304H172.153V268.088L183.385 253.304H193.033L179.977 269.816L193.513 287H183.481ZM227.558 287H219.35L205.622 266.216V287H197.414V253.304H205.622L219.35 274.184V253.304H227.558V287ZM242.575 280.424C243.663 279.56 244.159 279.16 244.063 279.224C247.199 276.632 249.663 274.504 251.455 272.84C253.279 271.176 254.815 269.432 256.063 267.608C257.311 265.784 257.935 264.008 257.935 262.28C257.935 260.968 257.631 259.944 257.023 259.208C256.415 258.472 255.503 258.104 254.287 258.104C253.071 258.104 252.111 258.568 251.407 259.496C250.735 260.392 250.399 261.672 250.399 263.336H242.479C242.543 260.616 243.119 258.344 244.207 256.52C245.327 254.696 246.783 253.352 248.575 252.488C250.399 251.624 252.415 251.192 254.623 251.192C258.431 251.192 261.295 252.168 263.215 254.12C265.167 256.072 266.143 258.616 266.143 261.752C266.143 265.176 264.975 268.36 262.639 271.304C260.303 274.216 257.327 277.064 253.711 279.848H266.671V286.52H242.575V280.424ZM293.465 287.336C291.001 287.336 288.793 286.936 286.841 286.136C284.889 285.336 283.321 284.152 282.137 282.584C280.985 281.016 280.377 279.128 280.313 276.92H289.049C289.177 278.168 289.609 279.128 290.345 279.8C291.081 280.44 292.041 280.76 293.225 280.76C294.441 280.76 295.401 280.488 296.105 279.944C296.809 279.368 297.161 278.584 297.161 277.592C297.161 276.76 296.873 276.072 296.297 275.528C295.753 274.984 295.065 274.536 294.233 274.184C293.433 273.832 292.281 273.432 290.777 272.984C288.601 272.312 286.825 271.64 285.449 270.968C284.073 270.296 282.889 269.304 281.897 267.992C280.905 266.68 280.409 264.968 280.409 262.856C280.409 259.72 281.545 257.272 283.817 255.512C286.089 253.72 289.049 252.824 292.697 252.824C296.409 252.824 299.401 253.72 301.673 255.512C303.945 257.272 305.161 259.736 305.321 262.904H296.441C296.377 261.816 295.977 260.968 295.241 260.36C294.505 259.72 293.561 259.4 292.409 259.4C291.417 259.4 290.617 259.672 290.009 260.216C289.401 260.728 289.097 261.48 289.097 262.472C289.097 263.56 289.609 264.408 290.633 265.016C291.657 265.624 293.257 266.28 295.433 266.984C297.609 267.72 299.369 268.424 300.713 269.096C302.089 269.768 303.273 270.744 304.265 272.024C305.257 273.304 305.753 274.952 305.753 276.968C305.753 278.888 305.257 280.632 304.265 282.2C303.305 283.768 301.897 285.016 300.041 285.944C298.185 286.872 295.993 287.336 293.465 287.336ZM318.868 253.304V273.464C318.868 275.48 319.364 277.032 320.356 278.12C321.348 279.208 322.804 279.752 324.724 279.752C326.644 279.752 328.116 279.208 329.14 278.12C330.164 277.032 330.676 275.48 330.676 273.464V253.304H338.884V273.416C338.884 276.424 338.244 278.968 336.964 281.048C335.684 283.128 333.956 284.696 331.78 285.752C329.636 286.808 327.236 287.336 324.58 287.336C321.924 287.336 319.54 286.824 317.428 285.8C315.348 284.744 313.7 283.176 312.484 281.096C311.268 278.984 310.66 276.424 310.66 273.416V253.304H318.868ZM382.808 253.304V287H374.6V266.792L367.064 287H360.44L352.856 266.744V287H344.648V253.304H354.344L363.8 276.632L373.16 253.304H382.808ZM396.918 259.88V266.696H407.91V273.032H396.918V280.424H409.35V287H388.71V253.304H409.35V259.88H396.918ZM427.303 253.304C430.855 253.304 433.959 254.008 436.615 255.416C439.271 256.824 441.319 258.808 442.759 261.368C444.231 263.896 444.967 266.824 444.967 270.152C444.967 273.448 444.231 276.376 442.759 278.936C441.319 281.496 439.255 283.48 436.567 284.888C433.911 286.296 430.823 287 427.303 287H414.679V253.304H427.303ZM426.775 279.896C429.879 279.896 432.295 279.048 434.023 277.352C435.751 275.656 436.615 273.256 436.615 270.152C436.615 267.048 435.751 264.632 434.023 262.904C432.295 261.176 429.879 260.312 426.775 260.312H422.887V279.896H426.775ZM470.53 281.048H457.954L455.938 287H447.346L459.538 253.304H469.042L481.234 287H472.546L470.53 281.048ZM468.418 274.712L464.242 262.376L460.114 274.712H468.418ZM515.089 287H506.881L493.153 266.216V287H484.945V253.304H493.153L506.881 274.184V253.304H515.089V287ZM543.406 263.96C542.799 262.84 541.919 261.992 540.767 261.416C539.647 260.808 538.319 260.504 536.783 260.504C534.127 260.504 531.999 261.384 530.398 263.144C528.799 264.872 527.999 267.192 527.999 270.104C527.999 273.208 528.831 275.64 530.495 277.4C532.191 279.128 534.511 279.992 537.455 279.992C539.471 279.992 541.167 279.48 542.543 278.456C543.951 277.432 544.975 275.96 545.615 274.04H535.199V267.992H553.055V275.624C552.447 277.672 551.407 279.576 549.935 281.336C548.495 283.096 546.655 284.52 544.415 285.608C542.175 286.696 539.647 287.24 536.831 287.24C533.503 287.24 530.527 286.52 527.903 285.08C525.311 283.608 523.279 281.576 521.807 278.984C520.367 276.392 519.646 273.432 519.646 270.104C519.646 266.776 520.367 263.816 521.807 261.224C523.279 258.6 525.311 256.568 527.903 255.128C530.495 253.656 533.455 252.92 536.783 252.92C540.815 252.92 544.207 253.896 546.959 255.848C549.743 257.8 551.583 260.504 552.479 263.96H543.406Z" fill="white"/>
</svg>
